<svg xmlns="http://www.w3.org/2000/svg" viewBox="0 0 64 64" role="img" aria-label="Dog birthday icon">
  <rect width="64" height="64" rx="14" fill="#1f2a44" />
  <path d="M32 11c2.6 3.4 2.5 5.8 1.2 7.4 2.1-.3 3.8 1.3 3.8 3.5 0 2.8-2.2 5-5 5s-5-2.2-5-5c0-2.2 1.7-3.8 3.8-3.5-1.3-1.6-1.4-4 1.2-7.4z" fill="#ff6b6b" />
  <path d="M32 15.4c1.2 1.6 1.1 2.8.5 3.6 1-.1 1.8.7 1.8 1.8 0 1.3-1 2.3-2.3 2.3s-2.3-1-2.3-2.3c0-1.1.8-1.9 1.8-1.8-.6-.8-.7-2 .5-3.6z" fill="#ffd166" />
  <circle cx="20" cy="22" r="6" fill="#ffd166" />
  <circle cx="44" cy="22" r="6" fill="#ffd166" />
  <circle cx="15" cy="34" r="5" fill="#ffd166" />
  <circle cx="49" cy="34" r="5" fill="#ffd166" />
  <path d="M32 28c-9.5 0-17 6.8-17 15.2 0 5.2 4.2 8.8 9 8.8 2.6 0 4.7-1.2 8-1.2s5.4 1.2 8 1.2c4.8 0 9-3.6 9-8.8C49 34.8 41.5 28 32 28z" fill="#ffd166" />
</svg>
